<svg width="56" height="60" viewBox="0 0 56 60" fill="none" xmlns="http://www.w3.org/2000/svg">
<path d="M0 3.68199V56.3152C0.000352614 56.4294 0.034411 56.541 0.0979044 56.6359C0.161398 56.7308 0.2515 56.8048 0.356912 56.8487C0.462324 56.8927 0.578354 56.9045 0.690452 56.8827C0.802549 56.8609 0.905725 56.8065 0.98704 56.7264L28.3925 29.9999L0.98704 3.27084C0.905725 3.19067 0.802549 3.13629 0.690452 3.11452C0.578354 3.09275 0.462324 3.10456 0.356912 3.14847C0.2515 3.19238 0.161398 3.26643 0.0979044 3.36135C0.034411 3.45626 0.000352614 3.5678 0 3.68199V3.68199Z" fill="#3BCCFF"/>
<path d="M39.8834 19.018L5.52042 0.0861125L5.49899 0.074059C4.90704 -0.247365 4.34454 0.553517 4.82936 1.01958L31.7661 26.7764L39.8834 19.018Z" fill="#48FF48"/>
<path d="M4.83203 58.9804C4.34453 59.4465 4.90703 60.2474 5.50166 59.926L5.52309 59.9139L39.8833 40.982L31.766 33.2209L4.83203 58.9804Z" fill="#FF3333"/>
<path d="M53.7556 26.6518L44.1597 21.3671L35.1371 30L44.1597 38.6289L53.7556 33.3482C56.3658 31.9058 56.3658 28.0942 53.7556 26.6518Z" fill="#FFD400"/>
</svg>
